# xmcd
#
# Track frame offsets: 
#        150
#        39279
#        59069
#        84149
#        115993
#        134850
#        161023
#        180717
#        205089
#        232282
#
# Disc length: 3419 seconds
#
# Revision: 0
# Processed by: cddbd v1.5.2PL0 Copyright (c) Steve Scherf et al.
# Submitted via: ExactAudioCopy v1.0b3
#
DISCID=8f0d590a
DTITLE=Phuong Dung - Sac Hoa Mau Nho
DYEAR=1900
DGENRE=
TTITLE0=Tien Giang que toi
TTITLE1=Mua mua di qua~
TTITLE2=Tieng hat chim da da
TTITLE3=Hoa no ve dem
TTITLE4=Sac hoa mau nho
TTITLE5=Con thuong goc bep chai he
TTITLE6=Nguoi ngoai pho~
TTITLE7=Que huong ai nho thi ve
TTITLE8=Em ve miet thu
TTITLE9=Truoc gio tam biet
EXTD=
EXTT0=
EXTT1=
EXTT2=
EXTT3=
EXTT4=
EXTT5=
EXTT6=
EXTT7=
EXTT8=
EXTT9=
PLAYORDER=
